<mxfile host="Electron" modified="2023-11-27T01:23:54.108Z" agent="Mozilla/5.0 (Macintosh; Intel Mac OS X 10_15_7) AppleWebKit/537.36 (KHTML, like Gecko) draw.io/22.1.2 Chrome/114.0.5735.289 Electron/25.9.4 Safari/537.36" etag="YQHjWTBnWtqD6o_UT6H-" version="22.1.2" type="device">
  <diagram id="C5RBs43oDa-KdzZeNtuy" name="Page-1">
    <mxGraphModel dx="1013" dy="1214" grid="1" gridSize="10" guides="1" tooltips="1" connect="1" arrows="1" fold="1" page="1" pageScale="1" pageWidth="827" pageHeight="1169" math="0" shadow="0">
      <root>
        <mxCell id="WIyWlLk6GJQsqaUBKTNV-0" />
        <mxCell id="WIyWlLk6GJQsqaUBKTNV-1" parent="WIyWlLk6GJQsqaUBKTNV-0" />
        <mxCell id="zZ0UZh3BlXLBt4JS338n-0" value="Start" style="rounded=1;whiteSpace=wrap;html=1;arcSize=50;" parent="WIyWlLk6GJQsqaUBKTNV-1" vertex="1">
          <mxGeometry x="353" y="40" width="120" height="60" as="geometry" />
        </mxCell>
        <mxCell id="zZ0UZh3BlXLBt4JS338n-1" value="drawPepero&lt;br&gt;input&lt;br&gt;bodyLength:Int&lt;br&gt;main:String&lt;br&gt;topping:String&lt;br&gt;barLength:Int" style="shape=parallelogram;perimeter=parallelogramPerimeter;whiteSpace=wrap;html=1;fixedSize=1;" parent="WIyWlLk6GJQsqaUBKTNV-1" vertex="1">
          <mxGeometry x="303.75" y="150" width="218.5" height="110" as="geometry" />
        </mxCell>
        <mxCell id="zZ0UZh3BlXLBt4JS338n-2" value="bodyLength 만큼 Loop" style="swimlane;whiteSpace=wrap;html=1;startSize=40;" parent="WIyWlLk6GJQsqaUBKTNV-1" vertex="1">
          <mxGeometry x="181.5" y="470" width="463" height="200" as="geometry" />
        </mxCell>
        <mxCell id="zZ0UZh3BlXLBt4JS338n-3" value="Print&lt;br&gt;&quot;\(topping)\(main)\(topping)&quot;" style="shape=document;whiteSpace=wrap;html=1;boundedLbl=1;" parent="zZ0UZh3BlXLBt4JS338n-2" vertex="1">
          <mxGeometry x="100.5" y="75" width="262" height="95" as="geometry" />
        </mxCell>
        <mxCell id="zZ0UZh3BlXLBt4JS338n-17" value="" style="endArrow=classic;html=1;rounded=0;exitX=0.5;exitY=1;exitDx=0;exitDy=0;entryX=0.5;entryY=0;entryDx=0;entryDy=0;" parent="zZ0UZh3BlXLBt4JS338n-2" target="zZ0UZh3BlXLBt4JS338n-3" edge="1">
          <mxGeometry width="50" height="50" relative="1" as="geometry">
            <mxPoint x="231.14" y="40" as="sourcePoint" />
            <mxPoint x="231.5" y="70" as="targetPoint" />
          </mxGeometry>
        </mxCell>
        <mxCell id="zZ0UZh3BlXLBt4JS338n-18" value="" style="endArrow=classic;html=1;rounded=0;exitX=0.501;exitY=0.827;exitDx=0;exitDy=0;exitPerimeter=0;" parent="zZ0UZh3BlXLBt4JS338n-2" source="zZ0UZh3BlXLBt4JS338n-3" edge="1">
          <mxGeometry width="50" height="50" relative="1" as="geometry">
            <mxPoint x="231.5" y="160" as="sourcePoint" />
            <mxPoint x="231.5" y="200" as="targetPoint" />
          </mxGeometry>
        </mxCell>
        <mxCell id="zZ0UZh3BlXLBt4JS338n-5" value="drawBody&lt;br&gt;input&lt;br&gt;bodyLength:bodyLength&lt;br&gt;main:main&lt;br&gt;topping:topping" style="shape=parallelogram;perimeter=parallelogramPerimeter;whiteSpace=wrap;html=1;fixedSize=1;" parent="WIyWlLk6GJQsqaUBKTNV-1" vertex="1">
          <mxGeometry x="313" y="310" width="200" height="110" as="geometry" />
        </mxCell>
        <mxCell id="zZ0UZh3BlXLBt4JS338n-6" value="drawBar&lt;br&gt;input&lt;br&gt;barLength:barLength" style="shape=parallelogram;perimeter=parallelogramPerimeter;whiteSpace=wrap;html=1;fixedSize=1;" parent="WIyWlLk6GJQsqaUBKTNV-1" vertex="1">
          <mxGeometry x="313" y="720" width="200" height="70" as="geometry" />
        </mxCell>
        <mxCell id="zZ0UZh3BlXLBt4JS338n-7" value="barLength 만큼 Loop" style="swimlane;whiteSpace=wrap;html=1;startSize=40;" parent="WIyWlLk6GJQsqaUBKTNV-1" vertex="1">
          <mxGeometry x="181.5" y="840" width="463" height="200" as="geometry" />
        </mxCell>
        <mxCell id="zZ0UZh3BlXLBt4JS338n-8" value="Print&lt;br&gt;&amp;nbsp;&quot; | |&quot;" style="shape=document;whiteSpace=wrap;html=1;boundedLbl=1;" parent="zZ0UZh3BlXLBt4JS338n-7" vertex="1">
          <mxGeometry x="100.5" y="90" width="262" height="80" as="geometry" />
        </mxCell>
        <mxCell id="zZ0UZh3BlXLBt4JS338n-19" value="" style="endArrow=classic;html=1;rounded=0;entryX=0.5;entryY=0;entryDx=0;entryDy=0;exitX=0.5;exitY=1;exitDx=0;exitDy=0;" parent="zZ0UZh3BlXLBt4JS338n-7" edge="1">
          <mxGeometry width="50" height="50" relative="1" as="geometry">
            <mxPoint x="231.14" y="40" as="sourcePoint" />
            <mxPoint x="231.14" y="90" as="targetPoint" />
          </mxGeometry>
        </mxCell>
        <mxCell id="zZ0UZh3BlXLBt4JS338n-20" value="" style="endArrow=classic;html=1;rounded=0;exitX=0.5;exitY=1;exitDx=0;exitDy=0;" parent="zZ0UZh3BlXLBt4JS338n-7" edge="1">
          <mxGeometry width="50" height="50" relative="1" as="geometry">
            <mxPoint x="231.5" y="160" as="sourcePoint" />
            <mxPoint x="231.5" y="200" as="targetPoint" />
          </mxGeometry>
        </mxCell>
        <mxCell id="zZ0UZh3BlXLBt4JS338n-9" value="End" style="rounded=1;whiteSpace=wrap;html=1;arcSize=50;" parent="WIyWlLk6GJQsqaUBKTNV-1" vertex="1">
          <mxGeometry x="353" y="1090" width="120" height="60" as="geometry" />
        </mxCell>
        <mxCell id="zZ0UZh3BlXLBt4JS338n-10" value="" style="endArrow=classic;html=1;rounded=0;entryX=0.5;entryY=0;entryDx=0;entryDy=0;exitX=0.5;exitY=1;exitDx=0;exitDy=0;" parent="WIyWlLk6GJQsqaUBKTNV-1" source="zZ0UZh3BlXLBt4JS338n-0" target="zZ0UZh3BlXLBt4JS338n-1" edge="1">
          <mxGeometry width="50" height="50" relative="1" as="geometry">
            <mxPoint x="390" y="140" as="sourcePoint" />
            <mxPoint x="440" y="90" as="targetPoint" />
          </mxGeometry>
        </mxCell>
        <mxCell id="zZ0UZh3BlXLBt4JS338n-11" value="" style="endArrow=classic;html=1;rounded=0;entryX=0.5;entryY=0;entryDx=0;entryDy=0;exitX=0.5;exitY=1;exitDx=0;exitDy=0;" parent="WIyWlLk6GJQsqaUBKTNV-1" edge="1">
          <mxGeometry width="50" height="50" relative="1" as="geometry">
            <mxPoint x="412.64" y="260" as="sourcePoint" />
            <mxPoint x="412.64" y="310" as="targetPoint" />
          </mxGeometry>
        </mxCell>
        <mxCell id="zZ0UZh3BlXLBt4JS338n-12" value="" style="endArrow=classic;html=1;rounded=0;entryX=0.5;entryY=0;entryDx=0;entryDy=0;exitX=0.5;exitY=1;exitDx=0;exitDy=0;" parent="WIyWlLk6GJQsqaUBKTNV-1" edge="1">
          <mxGeometry width="50" height="50" relative="1" as="geometry">
            <mxPoint x="412.64" y="420" as="sourcePoint" />
            <mxPoint x="412.64" y="470" as="targetPoint" />
          </mxGeometry>
        </mxCell>
        <mxCell id="zZ0UZh3BlXLBt4JS338n-13" value="" style="endArrow=classic;html=1;rounded=0;entryX=0.5;entryY=0;entryDx=0;entryDy=0;exitX=0.5;exitY=1;exitDx=0;exitDy=0;" parent="WIyWlLk6GJQsqaUBKTNV-1" edge="1">
          <mxGeometry width="50" height="50" relative="1" as="geometry">
            <mxPoint x="412.64" y="670" as="sourcePoint" />
            <mxPoint x="412.64" y="720" as="targetPoint" />
          </mxGeometry>
        </mxCell>
        <mxCell id="zZ0UZh3BlXLBt4JS338n-14" value="" style="endArrow=classic;html=1;rounded=0;entryX=0.5;entryY=0;entryDx=0;entryDy=0;exitX=0.5;exitY=1;exitDx=0;exitDy=0;" parent="WIyWlLk6GJQsqaUBKTNV-1" edge="1">
          <mxGeometry width="50" height="50" relative="1" as="geometry">
            <mxPoint x="412.64" y="790" as="sourcePoint" />
            <mxPoint x="412.64" y="840" as="targetPoint" />
          </mxGeometry>
        </mxCell>
        <mxCell id="zZ0UZh3BlXLBt4JS338n-15" value="" style="endArrow=classic;html=1;rounded=0;entryX=0.5;entryY=0;entryDx=0;entryDy=0;" parent="WIyWlLk6GJQsqaUBKTNV-1" edge="1">
          <mxGeometry width="50" height="50" relative="1" as="geometry">
            <mxPoint x="412.64" y="1040" as="sourcePoint" />
            <mxPoint x="412.64" y="1090" as="targetPoint" />
          </mxGeometry>
        </mxCell>
      </root>
    </mxGraphModel>
  </diagram>
</mxfile>
